# xmcd
#
# Track frame offsets:
#	182
#	28045
#	43287
#	59022
#	77340
#	93295
#	105782
#	122997
#	140037
#	156467
#	170860
#	188647
#	202910
#	214605
#	234832
#	254392
#	267905
#	290845
#	306987
#	320687
#
# Disc length: 4528
#
# Revision: 3
# Processed by: cddbd v1.5.1PL0 Copyright (c) Steve Scherf et al.
# Submitted via: Clarion 0.9.3
# Normalized: r0:DSETVAR1,TDELIM( - ),TSWAP
#
DISCID=2911ae14
DTITLE=Various Artist - The Ultimate Line Dancing Album
DYEAR=1900
DGENRE=
TTITLE0=Brooks and Dunn - Boot Scootin' Boogie
TTITLE1=Billy Ray Cyrus - Achy Breaky Heart
TTITLE2=Mary Chapin Carpenter - I Feel Lucky
TTITLE3=Alan Jackson - Chatahoochee
TTITLE4=Dolly Parton - Romeo
TTITLE5=Dwight Yoakam - Honky Tonk Man
TTITLE6=The Tractors - Baby Like To Rock
TTITLE7=Joe Diffie - Honky Tonk Attitude
TTITLE8=Sunset Stampede - Line King
TTITLE9=Rednex - Cotton Eye Joe
TTITLE10=The Grid - Swamp Thing
TTITLE11=John Michael Montgomery - Life's A Dance
TTITLE12=Martina McBride - My Baby Loves Me
TTITLE13=Steve earle - Copperhead Road
TTITLE14=Pam Tillis - Cleopatra, Queen Of Denial
TTITLE15=John Anderson - Money In The Bank
TTITLE16=Ronnie McDowell - Funky Cowboy
TTITLE17=George Strait - Adalida
TTITLE18=Lorrie Morgan - 1-800 Used To Be
TTITLE19=Wynonna - No One Else On Earth
EXTD=
EXTT0=
EXTT1=
EXTT2=
EXTT3=
EXTT4=
EXTT5=
EXTT6=
EXTT7=
EXTT8=
EXTT9=
EXTT10=
EXTT11=
EXTT12=
EXTT13=
EXTT14=
EXTT15=
EXTT16=
EXTT17=
EXTT18=
EXTT19=
PLAYORDER=
